Coordinates
version=1
nRows=9
nColumns=24
inDegrees=yes

Units are S.I. units (second, meters, Newtons, ...)
Angles are in degrees.

endheader
time	pelvis_tilt	pelvis_list	pelvis_rotation	pelvis_tx	pelvis_ty	pelvis_tz	hip_flexion_r	hip_adduction_r	hip_rotation_r	knee_angle_r	ankle_angle_r	subtalar_angle_r	mtp_angle_r	hip_flexion_l	hip_adduction_l	hip_rotation_l	knee_angle_l	ankle_angle_l	subtalar_angle_l	mtp_angle_l	lumbar_extension	lumbar_bending	lumbar_rotation
      2.95500000	     -9.78812621	     -5.89610881	      7.32961627	     -1.67408201	     -0.04471595	      0.69615407	     34.85897738	      1.46958411	     -0.60859698	    -36.22908039	      2.00295394	     -2.15625035	     16.34798398	      7.85013880	     -5.60737607	      5.50444519	    -51.46832339	    -23.22322335	      2.76028822	      8.11056222	      8.38650402	     12.38882405	    -12.17836912
      2.96000000	     -9.71075176	     -6.16615487	      7.19026287	     -1.66702279	     -0.04404619	      0.69637747	     34.26699568	      1.87176654	     -0.72145934	    -36.06242821	      2.42324827	     -2.06428084	     16.43794528	      9.03136925	     -5.82493793	      5.11921898	    -53.39338357	    -22.74201567	      2.70975108	      8.33001499	      8.25514103	     12.80444429	    -11.81896458
      2.96500000	     -9.64412408	     -6.37822858	      7.04869361	     -1.65997447	     -0.04324785	      0.69657429	     33.65861303	      2.22259095	     -0.78640414	    -35.85898323	      2.81518807	     -2.00733723	     16.45467912	     10.20262054	     -5.97654768	      4.75456113	    -55.24441598	    -22.06903060	      2.75149811	      8.78717350	      8.12481639	     13.15371832	    -11.43054176
      2.97000000	     -9.60339392	     -6.55918472	      6.90609545	     -1.65291896	     -0.04236151	      0.69683966	     33.05474184	      2.55651876	     -0.81257333	    -35.62345530	      3.17179625	     -2.04976513	     16.30935517	     11.38330267	     -6.10648170	      4.41912921	    -57.00596845	    -21.33206116	      2.97224660	      9.76180810	      8.02264285	     13.45079745	    -11.04369187
      2.97500000	     -9.52498230	     -6.66742984	      6.78754493	     -1.64585096	     -0.04124921	      0.69711867	     32.37364701	      2.82339941	     -0.78670156	    -35.36633130	      3.63491249	     -1.95003571	     15.69373046	     12.45019635	     -6.16144956	      4.16586511	    -58.48469677	    -21.40019968	      3.06571922	     13.20984317	      7.87463748	     13.66419893	    -10.64560415
      2.98000000	     -9.49650757	     -6.83117836	      6.66201798	     -1.63870460	     -0.04010707	      0.69743787	     31.70531774	      3.15701591	     -0.74800374	    -35.00508969	      3.92031733	     -2.10766568	     15.43293253	     13.58878188	     -6.29095476	      3.90296537	    -59.95908573	    -21.04215566	      3.37406434	     15.68451977	      7.80680364	     13.91877130	    -10.26367086
      2.98500000	     -9.40161892	     -6.80727537	      6.52938001	     -1.63171721	     -0.03877259	      0.69775914	     30.96177753	      3.30705298	     -0.62831190	    -34.67468219	      4.27594647	     -2.03421625	     15.19773750	     14.58878239	     -6.21287506	      3.66994824	    -61.24015626	    -20.95217613	      3.77414162	     18.90746620	      7.61342235	     13.97851532	     -9.86772422
      2.99000000	     -9.38201233	     -6.91678069	      6.41732800	     -1.62457594	     -0.03747466	      0.69809811	     30.24783459	      3.58605645	     -0.54614483	    -34.22406813	      4.51307084	     -2.20798796	     14.99187152	     15.70458219	     -6.29252467	      3.44923944	    -62.50733983	    -20.63698424	      4.23329466	     21.27702080	      7.56081565	     14.15596207	     -9.49382036
      2.99500000	     -9.32531670	     -6.93232553	      6.29919626	     -1.61754114	     -0.03606744	      0.69843116	     29.48599227	      3.77137998	     -0.40539195	    -33.77574483	      4.77208576	     -2.23971265	     14.78950990	     16.74359087	     -6.27397868	      3.23047455	    -63.63269294	    -20.45189930	      4.69861133	     23.76568413	      7.43597922	     14.23633681	     -9.14101534
